<svg id="Layer_1" enable-background="new 0 0 512 512" height="512" viewBox="0 0 512 512" width="512" xmlns="http://www.w3.org/2000/svg"><path d="m193 202.963c-5.104 0-10.207-1.941-14.109-5.825-7.828-7.792-7.858-20.456-.065-28.285l31.672-31.82c25.371-25.369 66.603-25.375 91.944-.044l31.729 31.861c7.795 7.826 7.769 20.49-.058 28.284-7.826 7.794-20.489 7.769-28.284-.059l-31.697-31.828c-9.717-9.711-25.575-9.708-35.317.038l-31.64 31.787c-3.908 3.926-9.041 5.891-14.175 5.891zm319 189v-168.271c0-37.191-17.654-72.86-47.227-95.415l-136-103.729c-42.848-32.681-102.699-32.681-145.547 0l-136 103.729c-29.572 22.554-47.226 58.223-47.226 95.415v168.271c0 66.168 53.832 120 120 120h272c66.168 0 120-53.832 120-120zm-207.484-335.61 136 103.729c19.714 15.036 31.484 38.816 31.484 63.61v168.271c0 44.112-35.888 80-80 80h-272c-44.112 0-80-35.888-80-80v-168.271c0-24.794 11.77-48.573 31.484-63.61l136-103.729c14.282-10.894 31.399-16.34 48.516-16.34s34.233 5.446 48.516 16.34zm24.259 291.023 96.355-73.512c8.782-6.7 10.47-19.25 3.77-28.032-6.698-8.781-19.251-10.47-28.031-3.77l-96.354 73.511c-28.566 21.787-68.466 21.787-97.054-.018l-95.355-72.512c-8.792-6.686-21.34-4.979-28.026 3.814-6.686 8.792-4.979 21.34 3.813 28.026l95.333 72.495c21.424 16.34 47.098 24.51 72.772 24.51 25.677-.001 51.353-8.171 72.777-24.512zm-51.775-73.413v-62c0-11.046-8.954-20-20-20s-20 8.954-20 20v62c0 11.046 8.954 20 20 20s20-8.955 20-20z"/></svg>