<svg id="Layer_1" enable-background="new 0 0 512.012 512.012" height="512" viewBox="0 0 512.012 512.012" width="512" xmlns="http://www.w3.org/2000/svg"><g><path d="m159.006 273.012c-11.046 0-20 8.954-20 20s8.954 20 20 20h193c11.046 0 20-8.954 20-20s-8.954-20-20-20z"/><path d="m312.006 100.012c0 11.046 8.954 20 20 20h60v60c0 11.046 8.954 20 20 20s20-8.954 20-20v-60h60c11.046 0 20-8.954 20-20s-8.954-20-20-20h-60v-60c0-11.046-8.954-20-20-20s-20 8.954-20 20v60h-60c-11.046 0-20 8.954-20 20z"/><path d="m258.006.012c1.304 0-1.298-.027 0 0z"/><path d="m458.925 296.408-6.612-47.173c-1.534-10.938-11.641-18.566-22.583-17.03-10.939 1.533-18.563 11.644-17.03 22.583l8.971 64c1.384 9.876 9.833 17.224 19.806 17.224h10.528c11.028 0 20 8.972 20 20s-8.972 20-20 20h-392c-11.028 0-20-8.972-20-20s8.972-20 20-20h10.528c9.973 0 18.422-7.347 19.806-17.224l21.532-153.607c5.801-41.38 28.616-78.044 62.596-100.589 24.237-16.081 54.432-24.58 83.537-24.58 19.467.402 38.671 4.236 54.954 11.334 10.126 4.413 21.912-.217 26.326-10.342s-.217-21.912-10.342-26.326c-21.092-9.194-46.221-14.156-70.936-14.666-36.997 0-74.839 10.806-105.651 31.249-43.513 28.87-72.706 75.658-80.094 128.368l-19.174 136.78c-29.836 3.442-53.081 28.86-53.081 59.604 0 33.084 26.916 60 60 60h392c33.084 0 60-26.916 60-60 0-30.745-23.245-56.162-53.081-59.605z"/><path d="m299.036 437.146c-10.965-1.274-20.9 6.584-22.176 17.556-1.147 9.868-9.683 17.31-19.854 17.31s-18.707-7.442-19.854-17.31c-1.276-10.972-11.205-18.838-22.176-17.556-10.972 1.276-18.832 11.205-17.556 22.176 3.493 30.038 29.109 52.69 59.586 52.69s56.094-22.652 59.586-52.69c1.276-10.972-6.584-20.9-17.556-22.176z"/></g></svg>