<svg id="Layer_1" enable-background="new 0 0 512.003 512.003" height="512" viewBox="0 0 512.003 512.003" width="512" xmlns="http://www.w3.org/2000/svg"><path d="m512 143.002v95c0 11.046-8.954 20-20 20s-20-8.954-20-20v-95c0-44.112-35.888-80-80-80h-272c-44.112 0-80 35.888-80 80v162c0 44.112 35.888 80 80 80h125c11.046 0 20 8.954 20 20s-8.954 20-20 20h-125c-66.168 0-120-53.832-120-120v-162c0-66.168 53.832-120 120-120h272c66.168 0 120 53.831 120 120zm-86.869 43.9c8.782-6.7 10.469-19.25 3.77-28.032-6.7-8.781-19.25-10.469-28.032-3.77l-96.353 73.511c-28.565 21.787-68.467 21.787-97.032 0l-95.355-72.729c-8.783-6.699-21.333-5.01-28.031 3.773-6.699 8.783-5.009 21.333 3.773 28.031l95.355 72.729c21.424 16.34 47.098 24.51 72.773 24.51s51.352-8.171 72.777-24.512zm77.159 148.249-13.324 7.994c2.611 8.158 4.034 16.843 4.034 25.856s-1.423 17.698-4.034 25.856l13.323 7.994c9.472 5.683 12.543 17.968 6.86 27.439-3.75 6.25-10.375 9.713-17.169 9.713-3.502 0-7.049-.92-10.271-2.853l-13.57-8.142c-10.877 10.901-24.695 18.853-40.141 22.593v17.399c0 11.046-8.954 20-20 20s-20-8.954-20-20v-17.399c-15.798-3.826-29.881-12.071-40.868-23.356l-14.842 8.905c-3.221 1.933-6.769 2.853-10.271 2.853-6.795 0-13.419-3.463-17.169-9.713-5.683-9.471-2.611-21.757 6.86-27.439l15.003-9.002c-2.409-7.864-3.714-16.206-3.714-24.848s1.305-16.984 3.714-24.848l-15.004-9.002c-9.472-5.683-12.543-17.968-6.86-27.44s17.968-12.542 27.44-6.86l14.842 8.905c10.987-11.285 25.07-19.53 40.868-23.356v-17.399c0-11.046 8.954-20 20-20s20 8.954 20 20v17.399c15.446 3.74 29.264 11.692 40.141 22.593l13.569-8.142c9.472-5.683 21.757-2.612 27.44 6.86 5.686 9.472 2.615 21.757-6.857 27.44zm-49.29 33.851c0-24.813-20.187-45-45-45s-45 20.187-45 45 20.187 45 45 45 45-20.187 45-45z"/></svg>