<svg id="Layer_1" enable-background="new 0 0 512 512" height="512" viewBox="0 0 512 512" width="512" xmlns="http://www.w3.org/2000/svg"><path d="m56.507 86.288c-7.892-7.729-8.023-20.392-.294-28.283l39.461-40.289c.041-.042.083-.084.124-.126 11.308-11.342 26.35-17.59 42.351-17.59s31.041 6.248 42.35 17.591l40.166 40.289c7.798 7.823 7.779 20.486-.044 28.284-7.82 7.797-20.485 7.78-28.284-.043l-40.166-40.289c-3.749-3.761-8.729-5.832-14.022-5.832-5.271 0-10.23 2.052-13.974 5.781l-39.386 40.214c-3.917 3.999-9.102 6.005-14.289 6.005-5.05 0-10.102-1.9-13.993-5.712zm79.994-7.288c-11.046 0-20 8.954-20 20v63c0 11.046 8.954 20 20 20s20-8.954 20-20v-63c0-11.046-8.954-20-20-20zm140 41c0-39.252 43.925-70 100-70s100 30.748 100 70-43.925 70-100 70-100-30.748-100-70zm40 0c0 6.117 5.114 12.822 14.031 18.396 11.8 7.375 28.555 11.604 45.969 11.604s34.169-4.229 45.969-11.604c8.917-5.573 14.031-12.278 14.031-18.396s-5.114-12.822-14.031-18.396c-11.8-7.375-28.555-11.604-45.969-11.604s-34.169 4.229-45.969 11.604c-8.917 5.574-14.031 12.279-14.031 18.396zm127.268 331.802c-37.006 26.802-99.531 26.802-136.537 0-8.945-6.479-21.45-4.48-27.93 4.466-6.479 8.946-4.479 21.45 4.467 27.929 24.754 17.929 57.331 27.803 91.732 27.803s66.978-9.874 91.731-27.802c8.946-6.479 10.945-18.983 4.467-27.929-6.479-8.947-18.983-10.947-27.93-4.467zm0-80c-37.006 26.802-99.531 26.802-136.537 0-8.945-6.479-21.45-4.48-27.93 4.466-6.479 8.946-4.479 21.45 4.467 27.929 24.754 17.929 57.331 27.803 91.732 27.803s66.978-9.874 91.731-27.802c8.946-6.479 10.945-18.983 4.467-27.929s-18.983-10.947-27.93-4.467zm0-81c-37.006 26.802-99.531 26.802-136.537 0-8.945-6.48-21.45-4.48-27.93 4.466-6.479 8.946-4.479 21.45 4.467 27.929 24.754 17.929 57.331 27.803 91.732 27.803s66.978-9.874 91.731-27.802c8.946-6.479 10.945-18.983 4.467-27.929s-18.983-10.946-27.93-4.467zm0-81c-37.006 26.802-99.531 26.802-136.537 0-8.945-6.479-21.45-4.48-27.93 4.466-6.479 8.946-4.479 21.45 4.467 27.929 24.754 17.929 57.331 27.803 91.732 27.803s66.978-9.874 91.731-27.802c8.946-6.479 10.945-18.983 4.467-27.929s-18.983-10.947-27.93-4.467zm-207.268 72.198c0 39.252-43.925 70-100 70s-100-30.748-100-70 43.925-70 100-70 100 30.748 100 70zm-40 0c0-6.117-5.114-12.822-14.031-18.396-11.8-7.375-28.555-11.604-45.969-11.604s-34.169 4.229-45.969 11.604c-8.917 5.573-14.031 12.278-14.031 18.396s5.114 12.822 14.031 18.396c11.8 7.375 28.555 11.604 45.969 11.604s34.169-4.229 45.969-11.604c8.916-5.574 14.031-12.279 14.031-18.396zm7.268 169.802c-37.006 26.802-99.531 26.802-136.537 0-8.945-6.479-21.449-4.48-27.93 4.466-6.479 8.946-4.479 21.45 4.467 27.929 24.754 17.929 57.331 27.803 91.732 27.803s66.978-9.874 91.731-27.802c8.946-6.479 10.945-18.983 4.467-27.929-6.479-8.947-18.983-10.947-27.93-4.467zm0-80c-37.006 26.802-99.531 26.802-136.537 0-8.945-6.479-21.449-4.48-27.93 4.466-6.479 8.946-4.479 21.45 4.467 27.929 24.754 17.929 57.331 27.803 91.732 27.803s66.978-9.874 91.731-27.802c8.946-6.479 10.945-18.983 4.467-27.929s-18.983-10.947-27.93-4.467z"/></svg>