<svg id="Layer_1" enable-background="new 0 0 512 512" height="512" viewBox="0 0 512 512" width="512" xmlns="http://www.w3.org/2000/svg"><path d="m93 386c-51.28 0-93-41.495-93-92.5 0-28.843 13.276-55.51 35.5-72.856-1.662-7.559-2.5-15.297-2.5-23.144 0-57.677 45.653-104.89 102.724-107.395 7.084-22.836 20.529-43.434 38.889-59.214 23.176-19.92 52.79-30.891 83.387-30.891 33.388 0 64.987 12.782 88.979 35.99 19.343 18.711 32.084 42.582 36.879 68.591 71.746 6.514 128.142 67.004 128.142 140.419 0 63.379-42.652 119.311-103.724 136.015-10.652 2.917-21.653-3.36-24.567-14.015s3.36-21.654 14.015-24.568c43.732-11.962 74.276-52.027 74.276-97.432 0-55.691-45.309-101-101-101-11 0-14.763-1.595-18.668-5.213-3.906-3.618-6.208-8.645-6.396-13.966-1.684-47.563-40.309-84.821-87.936-84.821-43.431 0-79.963 31.062-86.865 73.858-1.714 10.625-11.527 17.987-22.209 16.663-2.787-.346-5.622-.521-8.426-.521-37.22 0-67.5 30.28-67.5 67.5 0 8.45 1.539 16.687 4.575 24.483 3.697 9.495-.335 20.252-9.363 24.977-17.401 9.108-28.212 26.941-28.212 46.54 0 28.949 23.775 52.5 53 52.5 11.046 0 20 8.954 20 20s-8.954 20-20 20zm249-23c0-52.383-42.617-95-95-95s-95 42.617-95 95 42.617 95 95 95 95-42.617 95-95zm-40 0c0 30.327-24.673 55-55 55s-55-24.673-55-55 24.673-55 55-55 55 24.673 55 55zm87.143 143.142c7.81-7.811 7.81-20.474 0-28.284l-28-28c-7.811-7.811-20.475-7.811-28.285 0s-7.81 20.474 0 28.284l28 28c3.905 3.905 9.024 5.858 14.142 5.858s10.237-1.953 14.143-5.858z"/></svg>