<svg id="Layer_1" enable-background="new 0 0 512 512" height="512" viewBox="0 0 512 512" width="512" xmlns="http://www.w3.org/2000/svg"><path d="m452 357c-11.046 0-20-8.954-20-20v-28c0-11.046 8.954-20 20-20s20 8.954 20 20v28c0 11.046-8.954 20-20 20zm-372-20v-147c0-44.112 35.888-80 80-80h37c11.046 0 20-8.954 20-20s-8.954-20-20-20h-37c-66.168 0-120 53.832-120 120v147c0 11.046 8.954 20 20 20s20-8.954 20-20zm432 115c0-33.084-26.916-60-60-60h-392c-33.084 0-60 26.916-60 60s26.916 60 60 60h392c33.084 0 60-26.916 60-60zm-60-20c11.028 0 20 8.972 20 20s-8.972 20-20 20h-392c-11.028 0-20-8.972-20-20s8.972-20 20-20zm-170.358-173.858 1.808-1.808c9.733-9.734 24.53-12.163 36.818-6.045 18.274 9.098 38.014 13.711 58.659 13.71h.128c35.108 0 68.176-13.518 93.119-38.067 25.019-24.625 38.983-57.525 39.32-92.64.342-35.64-13.211-69.143-38.165-94.337-24.88-25.121-58.203-38.955-93.829-38.955-35.384 0-68.659 13.922-93.697 39.201-25.012 25.253-38.61 58.632-38.298 93.991l-.005 110.807c0 8.089 4.872 15.382 12.346 18.479 2.475 1.025 5.073 1.523 7.65 1.523 5.204-.001 10.32-2.033 14.146-5.859zm5.859-48.767.004-76.274c0-.064 0-.129-.001-.193-.237-24.641 9.252-47.924 26.719-65.559 17.468-17.636 40.65-27.349 65.277-27.349 24.869 0 48.099 9.625 65.409 27.103 17.383 17.552 26.825 40.921 26.586 65.805-.482 50.239-41.945 91.095-92.461 91.092-.028 0-.062-.001-.088 0-14.421 0-28.166-3.202-40.851-9.518-10.197-5.077-21.156-7.546-32.028-7.546-6.272.001-12.515.822-18.566 2.439z"/></svg>