<svg id="Layer_1" enable-background="new 0 0 512 512" height="512" viewBox="0 0 512 512" width="512" xmlns="http://www.w3.org/2000/svg"><path d="m217 512h-97c-66.168 0-120-53.832-120-120v-272c0-66.168 53.832-120 120-120h184c66.168 0 120 53.832 120 120v65c0 11.046-8.954 20-20 20s-20-8.954-20-20v-65c0-44.112-35.888-80-80-80h-184c-44.112 0-80 35.888-80 80v272c0 44.112 35.888 80 80 80h97c11.046 0 20 8.954 20 20s-8.954 20-20 20zm103-414c0-11.046-8.954-20-20-20s-20 8.954-20 20c0 16.542-13.458 30-30 30h-76c-16.542 0-30-13.458-30-30 0-11.046-8.954-20-20-20s-20 8.954-20 20c0 38.598 31.402 70 70 70h76c38.598 0 70-31.402 70-70zm192 279c0-74.439-60.561-135-135-135s-135 60.561-135 135 60.561 135 135 135 135-60.561 135-135zm-40 0c0 52.383-42.617 95-95 95s-95-42.617-95-95 42.617-95 95-95 95 42.617 95 95zm-41.013 0c0-11.046-8.954-20-20-20h-13.987v-21c0-11.046-8.954-20-20-20s-20 8.954-20 20v41c0 11.046 8.954 20 20 20h33.987c11.046 0 20-8.954 20-20z"/></svg>