<svg id="Layer_1" enable-background="new 0 0 512 512" height="512" viewBox="0 0 512 512" width="512" xmlns="http://www.w3.org/2000/svg"><path d="m512 349.5c0 51.005-41.495 92.5-92.5 92.5h-201.5c-11.046 0-20-8.954-20-20s8.954-20 20-20h201.5c28.948 0 52.5-23.552 52.5-52.5 0-19.599-10.811-37.432-28.213-46.54-9.027-4.725-13.06-15.481-9.362-24.977 3.036-7.797 4.575-16.034 4.575-24.483 0-37.22-30.28-67.5-67.5-67.5-2.801 0-5.637.176-8.429.521-10.671 1.322-20.492-6.039-22.206-16.663-6.902-42.796-43.434-73.858-86.865-73.858-9.779 0-19.375 1.588-28.521 4.72-10.445 3.576-21.821-1.992-25.4-12.443-3.578-10.45 1.993-21.822 12.443-25.4 13.326-4.564 27.282-6.877 41.478-6.877 30.597 0 60.211 10.971 83.388 30.891 18.359 15.78 31.805 36.378 38.889 59.214 57.07 2.505 102.723 49.718 102.723 107.395 0 7.846-.838 15.585-2.5 23.144 22.223 17.346 35.5 44.013 35.5 72.856zm-322-93.856v84.356c0 4.688-1.476 9.021-4.479 12.615-1.27 1.64-31.545 41.7-31.545 115.974 0 23.937-20.412 43.411-45.502 43.411h-26.949c-25.09 0-45.502-19.475-45.502-43.411 0-75.339-31.184-115.534-31.498-115.919-2.926-3.574-4.525-8.051-4.525-12.67v-84.355c0-48.879 39.766-88.645 88.644-88.645h12.713c48.877 0 88.643 39.766 88.643 88.644zm-40 0c0-26.823-21.821-48.644-48.644-48.644h-12.712c-26.823 0-48.644 21.821-48.644 48.644v77.954c10.618 15.926 36.023 61.693 36.023 134.991 0 1.316 2.518 3.411 5.502 3.411h26.949c2.984 0 5.502-2.095 5.502-3.411 0-73.298 25.405-119.065 36.023-134.991v-77.954zm-124-187.644c0-37.495 30.505-68 68-68s68 30.505 68 68-30.505 68-68 68-68-30.505-68-68zm40 0c0 15.439 12.561 28 28 28s28-12.561 28-28-12.561-28-28-28-28 12.561-28 28z"/></svg>