<svg id="Layer_1" enable-background="new 0 0 512.138 512.138" height="512" viewBox="0 0 512.138 512.138" width="512" xmlns="http://www.w3.org/2000/svg"><path d="m255.069 102.138c-113.038 0-205 91.963-205 205s91.962 205 205 205 205-91.963 205-205-91.963-205-205-205zm0 370c-90.981 0-165-74.019-165-165s74.019-165 165-165 165 74.019 165 165-74.019 165-165 165zm-60.667-412.138c0-33.084 26.916-60 60-60s60 26.861 60 59.879c0 11.046-8.954 20-20 20s-20-8.954-20-20c0-10.961-8.972-19.879-20-19.879s-20 8.972-20 20c0 11.046-8.954 20-20 20s-20-8.954-20-20zm283.809 100.28c-3.905 3.904-9.023 5.857-14.142 5.857s-10.237-1.953-14.142-5.857l-50-50c-7.811-7.811-7.811-20.475 0-28.285 7.811-7.809 20.474-7.809 28.284 0l50 50c7.81 7.811 7.81 20.475 0 28.285zm-416 1c-3.905 3.904-9.023 5.857-14.142 5.857s-10.237-1.953-14.142-5.857c-7.811-7.811-7.811-20.475 0-28.285l50-50c7.811-7.809 20.474-7.809 28.284 0 7.811 7.811 7.811 20.475 0 28.285zm249.858 175.858c0 21.481-13.754 39.838-33 46.901v3.099c0 11.046-8.954 20-20 20s-20-8.954-20-20v-2.607c-8.151-1.653-17.234-4.169-26.387-7.807-10.265-4.08-15.278-15.708-11.199-25.973 4.08-10.265 15.707-15.278 25.973-11.199 15.657 6.223 29.933 7.586 34.113 7.586 5.691 0 10.5-4.579 10.5-10s-6.411-10-14-10c-32.495 0-57-21.495-57-50 0-23.434 16.208-43.145 38-48.534v-1.466c0-11.046 8.954-20 20-20s20 8.954 20 20v3.68c5.139 1.355 10.84 3.188 17.249 5.68 10.294 4.003 15.395 15.594 11.391 25.889-4.004 10.293-15.594 15.395-25.889 11.391-15.006-5.835-23.647-6.64-30.751-6.64-5.514 0-10 4.486-10 10 0 5.701 7.309 10 17 10 14.058 0 27.336 4.908 37.391 13.82 10.555 9.355 16.609 22.542 16.609 36.18z"/></svg>