<svg id="Layer_1" enable-background="new 0 0 512 512" height="512" viewBox="0 0 512 512" width="512" xmlns="http://www.w3.org/2000/svg"><path d="m438 0c-40.804 0-74 33.196-74 74v364c0 40.804 33.196 74 74 74s74-33.196 74-74v-364c0-40.804-33.196-74-74-74zm34 438c0 18.748-15.252 34-34 34s-34-15.252-34-34v-364c0-18.748 15.252-34 34-34s34 15.252 34 34zm-398-156c-40.804 0-74 33.196-74 74v82c0 40.804 33.196 74 74 74s74-33.196 74-74v-82c0-40.804-33.196-74-74-74zm34 156c0 18.748-15.252 34-34 34s-34-15.252-34-34v-82c0-18.748 15.252-34 34-34s34 15.252 34 34zm148-299c-40.804 0-74 33.196-74 74v225c0 40.804 33.196 74 74 74s74-33.196 74-74v-225c0-40.804-33.196-74-74-74zm34 299c0 18.748-15.252 34-34 34s-34-15.252-34-34v-225c0-18.748 15.252-34 34-34s34 15.252 34 34zm-278.585-257.721c4.079-10.265 15.708-15.277 25.973-11.198 18.178 7.227 36.603 9.919 43.945 9.919 9.412 0 17.667-7.788 17.667-16.667 0-9.034-10.049-16.666-21.944-16.666-37.088 0-65.056-24.361-65.056-56.667 0-27.295 19.342-50.142 45-55.484v-13.516c0-11.046 8.954-20 20-20s20 8.954 20 20v15.411c7.607 1.667 16.265 4.2 26.193 8.061 10.294 4.003 15.395 15.594 11.391 25.889-4.003 10.293-15.595 15.395-25.889 11.391-19.075-7.419-31.023-8.419-40.195-8.419-9.098 0-16.5 7.477-16.5 16.667 0 9.657 10.538 16.667 25.056 16.667 34.156 0 61.944 25.42 61.944 56.666 0 15.218-6.166 29.54-17.361 40.329-7.043 6.787-15.494 11.597-24.639 14.169v11.169c0 11.046-8.954 20-20 20s-20-8.954-20-20v-11.778c-10.723-2.082-22.805-5.366-34.387-9.969-10.265-4.08-15.279-15.709-11.198-25.974z"/></svg>