<svg id="Layer_1" enable-background="new 0 0 512 512" height="512" viewBox="0 0 512 512" width="512" xmlns="http://www.w3.org/2000/svg"><path d="m392 512h-272c-66.168 0-120-53.832-120-120v-119.935c0-15.549 6.142-29.938 17.295-40.52 11.213-10.638 26.427-16.268 41.757-15.47 10.923.575 21.43 4.401 30.384 11.065l117.914 88.365c.045.034.09.068.135.103 28.566 21.787 68.465 21.787 97.031 0 .045-.034.09-.068.135-.103l117.861-88.326c9.007-6.703 19.514-10.529 30.438-11.104 15.309-.803 30.541 4.831 41.756 15.47 11.152 10.582 17.294 24.972 17.294 40.52v119.935c0 66.168-53.832 120-120 120zm-335.835-255.999c-4.106 0-8.294 1.674-11.34 4.564-2.201 2.088-4.825 5.778-4.825 11.5v119.935c0 44.112 35.888 80 80 80h272c44.112 0 80-35.888 80-80v-119.935c0-5.722-2.624-9.412-4.825-11.5-3.24-3.075-7.751-4.77-12.123-4.544-3.066.161-5.961 1.24-8.604 3.208l-117.743 88.237c-42.82 32.611-102.588 32.611-145.408 0l-117.797-88.276c-2.591-1.928-5.756-3.189-9.335-3.189zm249.835-40.001c0-11.046-8.954-20-20-20h-108c-11.046 0-20 8.954-20 20s8.954 20 20 20h108c11.046 0 20-8.954 20-20zm50-77c0-11.046-8.954-20-20-20h-158c-11.046 0-20 8.954-20 20s8.954 20 20 20h158c11.046 0 20-8.954 20-20zm108 18v-37c0-66.168-53.832-120-120-120h-174c-66.168 0-120 53.832-120 120v37c0 11.046 8.954 20 20 20s20-8.954 20-20v-37c0-44.112 35.888-80 80-80h174c44.112 0 80 35.888 80 80v37c0 11.046 8.954 20 20 20s20-8.954 20-20z"/></svg>