<svg id="Layer_1" enable-background="new 0 0 512.4 512.4" height="512" viewBox="0 0 512.4 512.4" width="512" xmlns="http://www.w3.org/2000/svg"><path d="m425.611 28.341c-26.845-22.742-62.076-32.482-96.657-26.717-48.475 8.077-97.335 8.227-145.224.439-34.941-5.678-70.413 4.193-97.331 27.089-26.818 22.81-42.199 56.09-42.199 91.304v101.299c0 40.916 7.939 80.83 23.598 118.632 15.658 37.802 38.267 71.64 67.199 100.572l36.351 36.351c23.394 23.394 54.123 35.09 84.853 35.09s61.459-11.696 84.853-35.091l36.35-36.35c28.933-28.933 51.542-62.77 67.2-100.572 15.658-37.801 23.597-77.715 23.597-118.631v-101.542c-.001-35.458-15.524-68.945-42.59-91.873zm2.589 193.415c0 72.119-28.085 139.922-79.081 190.919l-36.35 36.35c-31.192 31.191-81.945 31.193-113.137 0l-36.351-36.35c-50.996-50.997-79.081-118.801-79.081-190.92v-101.299c0-23.464 10.248-45.638 28.115-60.835 14.634-12.447 33.063-19.126 52.008-19.126 4.314 0 8.658.347 12.987 1.051 52.201 8.486 105.433 8.33 158.218-.467 22.961-3.823 46.372 2.654 64.227 17.782 18.077 15.313 28.444 37.676 28.444 61.353v101.542zm-108 57.033c0 15.218-6.166 29.54-17.361 40.329-7.043 6.787-15.494 11.597-24.639 14.169v11.169c0 11.046-8.954 20-20 20s-20-8.954-20-20v-11.778c-10.723-2.082-22.805-5.366-34.387-9.969-10.265-4.08-15.278-15.709-11.198-25.974s15.707-15.276 25.973-11.198c18.179 7.227 36.604 9.919 43.946 9.919 9.411 0 17.667-7.788 17.667-16.667 0-9.034-10.049-16.666-21.944-16.666-37.088 0-65.056-24.361-65.056-56.667 0-27.295 19.342-50.142 45-55.484v-13.516c0-11.046 8.954-20 20-20s20 8.954 20 20v15.411c7.607 1.667 16.265 4.2 26.193 8.061 10.294 4.003 15.395 15.594 11.391 25.889-4.003 10.294-15.596 15.395-25.889 11.391-19.075-7.418-31.023-8.418-40.195-8.418-9.098 0-16.5 7.477-16.5 16.667 0 9.657 10.538 16.667 25.056 16.667 34.155-.001 61.943 25.419 61.943 56.665z"/></svg>