<svg id="Layer_1" enable-background="new 0 0 512 512" height="512" viewBox="0 0 512 512" width="512" xmlns="http://www.w3.org/2000/svg"><g><circle cx="256.333" cy="259" r="25"/><path d="m364 268c-52.383 0-95 42.617-95 95s42.617 95 95 95 95-42.617 95-95-42.617-95-95-95zm0 150c-30.327 0-55-24.673-55-55s24.673-55 55-55 55 24.673 55 55-24.673 55-55 55z"/><path d="m181 89c11.046 0 20-8.954 20-20 0-15.99 13.009-29 29-29h52c15.991 0 29 13.01 29 29 0 11.046 8.954 20 20 20s20-8.954 20-20c0-38.047-30.953-69-69-69h-52c-38.047 0-69 30.953-69 69 0 11.046 8.954 20 20 20z"/><path d="m139 268c0-11.046-8.954-20-20-20s-20 8.954-20 20c0 60.103 48.897 109 109 109 11.046 0 20-8.954 20-20s-8.954-20-20-20c-38.047 0-69-30.953-69-69z"/><path d="m392 128h-272c-66.168 0-120 53.832-120 120v144c0 66.168 53.832 120 120 120h162c11.046 0 20-8.954 20-20s-8.954-20-20-20h-162c-44.112 0-80-35.888-80-80v-144c0-44.112 35.888-80 80-80h272c44.112 0 80 35.888 80 80v27c0 11.046 8.954 20 20 20s20-8.954 20-20v-27c0-66.168-53.832-120-120-120z"/><path d="m478.142 449.857c-7.811-7.811-20.474-7.811-28.284 0s-7.811 20.475 0 28.285l28 28c3.905 3.906 9.023 5.858 14.142 5.858s10.237-1.952 14.142-5.857c7.811-7.811 7.811-20.475 0-28.285z"/></g></svg>