<svg id="Layer_1" enable-background="new 0 0 512 512" height="512" viewBox="0 0 512 512" width="512" xmlns="http://www.w3.org/2000/svg"><path d="m146 423.5h-26c-66.168 0-120-53.832-120-120v-172c0-66.168 53.832-120 120-120h272c66.168 0 120 53.832 120 120v162c0 11.046-8.954 20-20 20s-20-8.954-20-20v-162c0-44.112-35.888-80-80-80h-272c-44.112 0-80 35.888-80 80v172c0 44.112 35.888 80 80 80h26c11.046 0 20 8.954 20 20s-8.954 20-20 20zm286-293c0-11.046-8.954-20-20-20h-312c-11.046 0-20 8.954-20 20s8.954 20 20 20h312c11.046 0 20-8.954 20-20zm0 80c0-11.046-8.954-20-20-20h-312c-11.046 0-20 8.954-20 20s8.954 20 20 20h312c11.046 0 20-8.954 20-20zm55.371 241.08c15.422-10.693 24.629-28.293 24.629-47.08s-9.207-36.387-24.629-47.08c-32.185-22.317-80.583-48.92-128.371-48.92s-96.186 26.603-128.371 48.92c-15.422 10.693-24.629 28.293-24.629 47.08s9.207 36.387 24.629 47.08c32.185 22.317 80.583 48.92 128.371 48.92s96.186-26.603 128.371-48.92zm-22.793-61.289c4.717 3.271 7.422 8.449 7.422 14.209s-2.705 10.938-7.422 14.209c-27.495 19.064-68.131 41.791-105.578 41.791s-78.083-22.727-105.578-41.791c-4.717-3.271-7.422-8.449-7.422-14.209s2.705-10.938 7.422-14.209c27.495-19.064 68.131-41.791 105.578-41.791s78.083 22.727 105.578 41.791zm-104.578 39.209c13.807 0 25-11.193 25-25s-11.193-25-25-25-25 11.193-25 25 11.193 25 25 25z"/></svg>