<svg id="Layer_1" enable-background="new 0 0 512 512" height="512" viewBox="0 0 512 512" width="512" xmlns="http://www.w3.org/2000/svg"><path d="m348 512h-184c-66.168 0-120-53.832-120-120v-272c0-66.168 53.832-120 120-120h184c66.168 0 120 53.832 120 120v272c0 66.168-53.832 120-120 120zm-184-472c-44.112 0-80 35.888-80 80v272c0 44.112 35.888 80 80 80h184c44.112 0 80-35.888 80-80v-272c0-44.112-35.888-80-80-80zm223 144c0-11.046-8.954-20-20-20h-34c-16.542 0-30-13.458-30-30v-34c0-11.046-8.954-20-20-20s-20 8.954-20 20v34c0 38.598 31.402 70 70 70h34c11.046 0 20-8.954 20-20zm-105.851 184.631 79.037-79.533c7.786-7.835 7.746-20.498-.089-28.284-7.834-7.784-20.496-7.748-28.284.089l-79.053 79.55c-4.187 4.222-9.741 6.548-15.639 6.548s-11.452-2.326-15.638-6.548l-38.281-38.612c-7.777-7.843-20.439-7.899-28.284-.122-7.844 7.777-7.898 20.44-.122 28.284l38.282 38.612c11.756 11.856 27.397 18.385 44.044 18.385s32.288-6.529 44.027-18.369z"/></svg>