<svg id="Layer_1" enable-background="new 0 0 512.068 512.068" height="512" viewBox="0 0 512.068 512.068" width="512" xmlns="http://www.w3.org/2000/svg"><path d="m406.139 141.034c0-11.046 8.954-20 20-20 21.736 0 42.476 8.12 58.396 22.863 15.687 14.525 25.37 34.183 27.268 55.351.986 11.002-7.133 20.72-18.134 21.706-.607.055-1.211.081-1.81.081-10.239 0-18.965-7.82-19.896-18.215-2.101-23.432-22.229-41.786-45.824-41.786-11.046 0-20-8.954-20-20zm62.385 280.349c-9.75-5.192-21.861-1.502-27.056 8.247-13.935 26.156-41 42.404-70.634 42.404h-229.532c-40.705 0-74.877-30.499-79.486-70.942l-21.522-188.851c-1.504-13.199 2.539-25.927 11.386-35.838 8.846-9.911 21.033-15.369 34.318-15.369 11.046 0 20-8.954 20-20s-8.954-20-20-20c-24.477 0-47.863 10.474-64.161 28.734-16.299 18.261-24.057 42.682-21.285 67.003l21.521 188.851c6.914 60.665 58.171 106.413 119.229 106.413h229.533c44.444 0 85.037-24.368 105.937-63.596 5.193-9.75 1.5-21.862-8.248-27.056zm-146.351-36.177-30.41-24.871c-.085-.069-.17-.138-.256-.206-26.842-21.227-64.789-20.023-90.23 2.859-.455.409-34.888 37.581-34.888 37.581-7.502 8.107-7.011 20.762 1.097 28.263 3.848 3.561 8.719 5.32 13.578 5.32 5.379 0 10.743-2.157 14.685-6.417l32.881-35.536c10.857-9.263 26.669-9.624 37.953-.784l30.408 24.87c.085.069.17.138.256.206 28.886 22.844 70.813 19.298 95.452-8.078.075-.083.149-.167.224-.252l45.236-52c7.249-8.334 6.37-20.967-1.963-28.217-8.336-7.251-20.968-6.371-28.217 1.963l-45.113 51.858c-10.538 11.595-28.356 13.104-40.693 3.441zm128.719-133.172h-52.823c-11.046 0-20 8.954-20 20s8.954 20 20 20h52.823c11.677 0 21.177 9.5 21.177 21.177v52.823c0 11.046 8.954 20 20 20s20-8.954 20-20v-52.823c-.001-33.733-27.444-61.177-61.177-61.177zm-287.746 52c11.046 0 20-8.954 20-20v-171c0-40.252 32.748-73 73-73s73 32.748 73 73v8h-86c-11.046 0-20 8.954-20 20s8.954 20 20 20h106c11.046 0 20-8.954 20-20v-28c0-62.309-50.691-113-113-113s-113 50.691-113 113v171c0 11.046 8.955 20 20 20z"/></svg>