<svg id="Layer_1" enable-background="new 0 0 512.913 512.913" height="512" viewBox="0 0 512.913 512.913" width="512" xmlns="http://www.w3.org/2000/svg"><path d="m236.513 134.728c29.806 11.433 69.013 17.729 110.4 17.729s80.594-6.296 110.4-17.729c48.377-18.556 55.6-44.474 55.6-58.271s-7.223-39.716-55.6-58.271c-29.806-11.434-69.013-17.73-110.4-17.73s-80.594 6.296-110.4 17.729c-48.377 18.556-55.6 44.474-55.6 58.271s7.223 39.716 55.6 58.272zm14.325-79.197c24.979-9.58 59.997-15.075 96.075-15.075s71.097 5.495 96.075 15.075c22.61 8.673 29.925 17.843 29.925 20.925s-7.314 12.252-29.925 20.925c-24.979 9.58-59.997 15.075-96.075 15.075s-71.097-5.495-96.075-15.075c-22.61-8.673-29.925-17.843-29.925-20.925s7.315-12.252 29.925-20.925zm259.425 401.772c4.503 10.086-.023 21.913-10.109 26.416-41.654 18.597-96.124 28.738-153.994 28.738-2.135 0-4.274-.014-6.418-.042-11.045-.143-19.883-9.212-19.74-20.256.143-11.046 9.24-19.88 20.257-19.74 53.8.688 106.126-8.499 143.588-25.226 10.085-4.505 21.912.023 26.416 10.11zm0-89c4.503 10.086-.023 21.913-10.109 26.416-30.336 13.544-68.161 22.759-109.384 26.648-.638.061-1.274.09-1.902.09-10.199 0-18.911-7.764-19.888-18.122-1.038-10.997 7.036-20.753 18.033-21.79 36.941-3.486 70.426-11.561 96.834-23.352 10.085-4.505 21.912.022 26.416 10.11zm-.001-90c4.503 10.086-.022 21.912-10.108 26.416-28.686 12.808-64.301 21.798-102.995 26-.733.08-1.463.119-2.184.119-10.078 0-18.746-7.595-19.859-17.843-1.192-10.98 6.743-20.85 17.724-22.042 34.605-3.759 66.075-11.629 91.005-22.76 10.087-4.505 21.914.023 26.417 10.11zm-10.109-64.584c-36.572 16.328-84.653 26.404-135.387 28.374-.264.01-.528.015-.79.015-10.688 0-19.553-8.451-19.971-19.225-.429-11.037 8.172-20.332 19.209-20.761 45.762-1.775 88.604-10.629 120.632-24.929 10.085-4.505 21.913.023 26.416 10.109 4.504 10.087-.022 21.914-10.109 26.417zm-330.153-41.263c-93.738 0-170 76.262-170 170s76.262 170 170 170 170-76.262 170-170-76.262-170-170-170zm0 300c-71.682 0-130-58.317-130-130s58.318-130 130-130 130 58.317 130 130-58.318 130-130 130zm56-100c0 21.481-13.754 39.838-33 46.901v3.099c0 11.046-8.954 20-20 20s-20-8.954-20-20v-2.607c-8.151-1.653-17.234-4.169-26.387-7.807-10.265-4.08-15.278-15.708-11.199-25.973 4.08-10.265 15.708-15.277 25.973-11.199 15.657 6.223 29.933 7.586 34.113 7.586 5.691 0 10.5-4.579 10.5-10s-6.411-10-14-10c-32.495 0-57-21.495-57-50 0-23.434 16.208-43.145 38-48.534v-1.466c0-11.046 8.954-20 20-20s20 8.954 20 20v3.68c5.139 1.355 10.84 3.188 17.249 5.68 10.294 4.003 15.395 15.594 11.391 25.889-4.003 10.294-15.594 15.395-25.889 11.391-15.006-5.835-23.647-6.64-30.751-6.64-5.514 0-10 4.486-10 10 0 5.701 7.309 10 17 10 14.058 0 27.336 4.908 37.391 13.82 10.555 9.356 16.609 22.542 16.609 36.18z"/></svg>