<svg id="Layer_1" enable-background="new 0 0 512.073 512.073" height="512" viewBox="0 0 512.073 512.073" width="512" xmlns="http://www.w3.org/2000/svg"><path d="m238.037 352.037v-9.57c-9.195-1.951-19.365-4.861-29.387-8.844-10.265-4.08-15.278-15.709-11.199-25.973 4.081-10.266 15.708-15.278 25.973-11.199 16.653 6.619 32.944 9.086 39.3 9.086 7.758 0 14.313-6.297 14.313-13.75 0-7.582-8.187-13.75-18.25-13.75-35.203 0-61.75-23.107-61.75-53.75 0-25.566 17.99-47.006 42-52.418v-8.832c0-11.046 8.954-20 20-20s20 8.954 20 20v11.139c6.951 1.74 14.275 4.121 22.249 7.222 10.294 4.003 15.395 15.594 11.391 25.889-4.004 10.294-15.593 15.395-25.889 11.391-18.552-7.215-28.918-8.14-35.876-8.14-7.651 0-13.875 6.168-13.875 13.75 0 7.839 9.351 13.75 21.75 13.75 15.203 0 29.553 5.298 40.407 14.918 11.506 10.199 17.843 23.989 17.843 38.832 0 24.376-16.486 45-39 51.561v8.689c0 11.046-8.954 20-20 20-11.046-.001-20-8.955-20-20.001zm261 70c0 41.355-33.645 75-75 75s-75-33.645-75-75 33.645-75 75-75 75 33.644 75 75zm-40 0c0-19.299-15.701-35-35-35s-35 15.701-35 35 15.701 35 35 35 35-15.702 35-35zm-443-332c0-41.355 33.645-75 75-75s75 33.645 75 75-33.645 75-75 75-75-33.645-75-75zm40 0c0 19.299 15.701 35 35 35s35-15.701 35-35-15.701-35-35-35-35 15.701-35 35zm292 0c0-41.355 33.645-75 75-75s75 33.645 75 75-33.645 75-75 75-75-33.645-75-75zm40 0c0 19.299 15.701 35 35 35s35-15.701 35-35-15.701-35-35-35-35 15.701-35 35zm-221 331c0 41.355-33.645 75-75 75s-75-33.645-75-75 33.645-75 75-75 75 33.644 75 75zm-40 0c0-19.299-15.701-35-35-35s-35 15.701-35 35 15.701 35 35 35 35-15.702 35-35zm379.54-217.163c-2.271-10.811-12.876-17.733-23.685-15.462-10.81 2.271-17.732 12.875-15.461 23.685 6.137 29.216 6.182 58.852.134 88.087-2.238 10.816 4.716 21.399 15.533 23.637 1.368.283 2.729.419 4.073.419 9.285 0 17.61-6.503 19.564-15.952 7.17-34.655 7.117-69.785-.158-104.414zm-206.393 263.692c-29.236 6.047-58.874 6.002-88.087-.135-10.81-2.266-21.414 4.652-23.684 15.462-2.271 10.81 4.652 21.413 15.461 23.685 17.444 3.664 35.009 5.495 52.582 5.495 17.313 0 34.633-1.779 51.831-5.337 10.817-2.237 17.771-12.819 15.534-23.637-2.238-10.816-12.823-17.777-23.637-15.533zm-88.294-423.059c29.236-6.046 58.874-6.002 88.087.135 1.387.291 2.769.431 4.131.431 9.26-.001 17.574-6.47 19.553-15.893 2.271-10.81-4.652-21.413-15.461-23.685-34.63-7.273-69.759-7.326-104.413-.158-10.817 2.237-17.771 12.819-15.534 23.637 2.238 10.817 12.823 17.776 23.637 15.533zm-182.709 279.155c10.81-2.271 17.732-12.875 15.461-23.685-6.137-29.216-6.182-58.852-.134-88.087 2.238-10.816-4.716-21.399-15.533-23.637-10.824-2.243-21.4 4.717-23.637 15.533-7.17 34.654-7.117 69.784.158 104.414 1.979 9.424 10.292 15.893 19.553 15.893 1.362-.001 2.746-.14 4.132-.431z"/></svg>