<svg id="Layer_1" enable-background="new 0 0 512 512" height="512" viewBox="0 0 512 512" width="512" xmlns="http://www.w3.org/2000/svg"><path d="m391.205 95.827c6.17-9.161 18.599-11.585 27.762-5.416 33.208 22.366 53.033 59.596 53.033 99.589v147c0 11.046-8.954 20-20 20s-20-8.954-20-20v-147c0-26.664-13.226-51.491-35.379-66.411-9.161-6.171-11.586-18.6-5.416-27.762zm-331.205 261.173c11.046 0 20-8.954 20-20v-147c0-26.664 13.226-51.491 35.379-66.411 9.161-6.171 11.586-18.6 5.416-27.762-6.172-9.16-18.599-11.587-27.762-5.416-33.208 22.366-53.033 59.596-53.033 99.589v147c0 11.046 8.954 20 20 20zm452 95c0 33.084-26.916 60-60 60h-392c-33.084 0-60-26.916-60-60s26.916-60 60-60h392c33.084 0 60 26.916 60 60zm-40 0c0-11.028-8.972-20-20-20h-392c-11.028 0-20 8.972-20 20s8.972 20 20 20h392c11.028 0 20-8.972 20-20zm-310.29-298.15 15.004-9.002c-2.409-7.864-3.714-16.206-3.714-24.848 0-8.643 1.305-16.984 3.714-24.848l-15.004-9.002c-9.472-5.683-12.543-17.968-6.859-27.439s17.97-12.543 27.439-6.859l14.841 8.905c10.987-11.286 25.07-19.53 40.869-23.356v-17.401c0-11.046 8.954-20 20-20s20 8.954 20 20v17.399c15.446 3.741 29.264 11.692 40.141 22.593l13.569-8.142c9.469-5.686 21.756-2.612 27.439 6.859s2.612 21.757-6.859 27.439l-13.324 7.995c2.611 8.159 4.034 16.843 4.034 25.857 0 9.013-1.422 17.698-4.034 25.855l13.324 7.994c9.472 5.684 12.543 17.969 6.86 27.44-3.75 6.25-10.375 9.713-17.169 9.713-3.503 0-7.05-.92-10.271-2.853l-13.57-8.142c-10.877 10.9-24.695 18.852-40.14 22.592v17.401c0 11.046-8.954 20-20 20s-20-8.954-20-20v-17.399c-15.798-3.826-29.881-12.07-40.868-23.356l-14.842 8.905c-3.222 1.933-6.77 2.853-10.271 2.853-6.794 0-13.418-3.463-17.169-9.713-5.683-9.472-2.612-21.757 6.86-27.44zm51.29-33.85c0 24.813 20.187 45 45 45s45-20.187 45-45-20.187-45-45-45-45 20.187-45 45z"/></svg>