<svg id="Layer_1" enable-background="new 0 0 512 512" height="512" viewBox="0 0 512 512" width="512" xmlns="http://www.w3.org/2000/svg"><path d="m212 404.027h-92.021c-66.156 0-119.979-53.822-119.979-119.979v-164.021c0-66.168 53.832-120 120-120h272c66.168 0 120 53.832 120 120v164c0 11.046-8.954 20-20 20s-20-8.954-20-20v-164c0-44.112-35.888-80-80-80h-272c-44.112 0-80 35.888-80 80v164.021c0 44.101 35.879 79.979 79.979 79.979h92.021c11.046 0 20 8.954 20 20s-8.954 20-20 20zm247-40.079c0-52.383-42.617-95-95-95s-95 42.617-95 95 42.617 95 95 95 95-42.617 95-95zm-40 0c0 30.327-24.673 55-55 55s-55-24.673-55-55 24.673-55 55-55 55 24.673 55 55zm87.156 142.153c7.803-7.817 7.791-20.481-.027-28.284l-28-27.945c-7.818-7.802-20.482-7.791-28.284.028-7.803 7.817-7.791 20.481.027 28.284l28 27.945c3.904 3.896 9.016 5.844 14.128 5.844 5.125 0 10.25-1.958 14.156-5.872zm-170.156-303.574c0-44.112-35.888-80-80-80s-80 35.888-80 80 35.888 80 80 80 80-35.887 80-80zm-40 0c0 22.056-17.944 40-40 40s-40-17.944-40-40 17.944-40 40-40 40 17.945 40 40zm137-67.5c0-11.046-8.954-20-20-20-8.271 0-15-6.729-15-15 0-11.046-8.954-20-20-20s-20 8.954-20 20c0 30.327 24.673 55 55 55 11.046 0 20-8.954 20-20zm-277-33c0-11.046-8.954-20-20-20s-20 8.954-20 20c0 8.271-6.729 15-15 15-11.046 0-20 8.954-20 20s8.954 20 20 20c30.327 0 55-24.673 55-55zm0 200c0-30.327-24.673-55-55-55-11.046 0-20 8.954-20 20s8.954 20 20 20c8.271 0 15 6.729 15 15 0 11.046 8.954 20 20 20s20-8.954 20-20z"/></svg>