<svg id="Layer_1" enable-background="new 0 0 512 512" height="512" viewBox="0 0 512 512" width="512" xmlns="http://www.w3.org/2000/svg"><path d="m392 511.963h-272c-66.168 0-120-53.832-120-120v-168.272c0-37.19 17.655-72.859 47.226-95.414l136-103.729c42.848-32.682 102.7-32.682 145.548 0l136 103.729c29.571 22.555 47.226 58.224 47.226 95.414v168.271c0 66.169-53.832 120.001-120 120.001zm-136-471.951c-17.117 0-34.233 5.447-48.516 16.341l-136 103.729c-19.714 15.036-31.484 38.815-31.484 63.609v168.271c0 44.112 35.888 80 80 80h272c44.112 0 80-35.888 80-80v-168.271c0-24.794-11.77-48.573-31.484-63.609l-136-103.729c-14.283-10.893-31.399-16.341-48.516-16.341zm72.776 307.363 96.354-73.512c8.782-6.699 10.47-19.25 3.77-28.031-6.7-8.783-19.25-10.47-28.032-3.77l-96.353 73.51c-28.565 21.787-68.467 21.787-97.032 0l-95.355-72.728c-8.783-6.698-21.333-5.01-28.031 3.773-6.699 8.782-5.009 21.333 3.773 28.031l95.355 72.728c21.424 16.341 47.098 24.511 72.773 24.511 25.676 0 51.353-8.17 72.778-24.512zm-52.776-154.412v-82c0-11.046-8.954-20-20-20s-20 8.954-20 20v82c0 11.046 8.954 20 20 20s20-8.954 20-20zm-20 49c-13.807 0-25 11.193-25 25s11.193 25 25 25 25-11.193 25-25-11.193-25-25-25z"/></svg>