<svg id="Layer_1" enable-background="new 0 0 512 512" height="512" viewBox="0 0 512 512" width="512" xmlns="http://www.w3.org/2000/svg"><path d="m438 512c-40.804 0-74-33.196-74-74v-184c0-40.804 33.196-74 74-74s74 33.196 74 74v184c0 40.804-33.196 74-74 74zm0-292c-18.748 0-34 15.252-34 34v184c0 18.748 15.252 34 34 34s34-15.252 34-34v-184c0-18.748-15.252-34-34-34zm-364 292c-40.804 0-74-33.196-74-74v-132c0-40.804 33.196-74 74-74s74 33.196 74 74v132c0 40.804-33.196 74-74 74zm0-240c-18.748 0-34 15.252-34 34v132c0 18.748 15.252 34 34 34s34-15.252 34-34v-132c0-18.748-15.252-34-34-34zm256 166v-78c0-11.046-8.954-20-20-20s-20 8.954-20 20v78c0 18.748-15.252 34-34 34s-34-15.252-34-34v-284c0-11.046-8.954-20-20-20h-27.481c-7.011 0-9.776-4.819-10.64-6.892-.831-1.994-2.255-7.146 2.462-11.904l62.553-63.102c7.736-7.804 18.073-12.102 29.106-12.102s21.37 4.298 29.106 12.103l62.553 63.102c4.717 4.759 3.293 9.91 2.462 11.904-.863 2.072-3.629 6.892-10.64 6.892h-31.481c-11.046 0-20 8.954-20 20s8.954 20 20 20h31.481c20.916 0 39.585-12.366 47.562-31.504 8.032-19.271 3.826-40.52-10.976-55.452l-62.553-63.102c-15.304-15.44-35.73-23.943-57.514-23.943s-42.21 8.503-57.515 23.942l-62.553 63.102c-14.802 14.933-19.008 36.181-10.976 55.452 7.978 19.138 26.647 31.504 47.563 31.504h7.481v264c0 40.804 33.196 74 74 74s74-33.196 74-74zm0-155v-54c0-11.046-8.954-20-20-20s-20 8.954-20 20v54c0 11.046 8.954 20 20 20s20-8.954 20-20z"/></svg>